<svg width="477" height="228" viewBox="0 0 477 228" fill="none" xmlns="http://www.w3.org/2000/svg">
<rect width="477" height="228" fill="white"/>
<rect x="47" y="54" width="114" height="145.077" fill="#86EFAC" stroke="#71717A" stroke-width="2"/>
<rect x="47" y="54" width="114" height="16" fill="#BAE6FD" stroke="#71717A" stroke-width="2"/>
<path d="M90.3 39.38V40.67H89.54V38.66H93.25C93.1367 38.2733 93.0267 37.9367 92.92 37.65L93.7 37.51C93.7667 37.6767 93.9 38.06 94.1 38.66H97.46V40.68H96.69V39.38H90.3ZM94.45 40.07C94.9233 40.3167 95.52 40.64 96.24 41.04C96.96 41.4333 97.5067 41.74 97.88 41.96L97.5 42.63C97.08 42.37 96.5133 42.0433 95.8 41.65C95.0933 41.2567 94.53 40.9567 94.11 40.75L94.45 40.07ZM92.89 40.75C92.4033 41.0767 91.85 41.42 91.23 41.78C90.6167 42.14 90.0267 42.46 89.46 42.74L89.13 42.02C89.6967 41.7667 90.2833 41.4633 90.89 41.11C91.5033 40.75 92.0333 40.4067 92.48 40.08L92.89 40.75ZM96.69 43.4H93.91V45.5H97.68V46.23H89.33V45.5H93.1V43.4H90.32V42.67H96.69V43.4ZM101.37 39.64C101.177 39.4267 100.917 39.1567 100.59 38.83C100.27 38.4967 100.007 38.2367 99.8 38.05L100.31 37.53C100.603 37.7967 101.137 38.3067 101.91 39.06L101.37 39.64ZM102.17 38.14H107.41V45.41C107.41 45.7167 107.37 45.95 107.29 46.11C107.217 46.27 107.087 46.3833 106.9 46.45C106.713 46.5167 106.437 46.55 106.07 46.55H104.98L104.84 45.81H105.82C106.08 45.81 106.27 45.7933 106.39 45.76C106.517 45.7267 106.6 45.6667 106.64 45.58C106.687 45.4867 106.71 45.3433 106.71 45.15V38.87H102.17V38.14ZM105.75 44.54C105.543 44.3333 105.257 44.0733 104.89 43.76C104.53 43.4467 104.183 43.1567 103.85 42.89V45.98H103.13V42.7C102.877 43.1267 102.59 43.52 102.27 43.88C101.95 44.2333 101.553 44.6067 101.08 45L100.61 44.34C101.223 43.8467 101.717 43.38 102.09 42.94C102.463 42.5 102.79 41.9867 103.07 41.4H100.97V40.68H103.13V39.36H103.85V40.68H106.03V41.4H103.85V42.06L104.18 42.32C104.307 42.42 104.607 42.6567 105.08 43.03C105.553 43.3967 105.907 43.68 106.14 43.88L105.75 44.54ZM100.29 46.59H99.57V39.51H100.29V46.59ZM109.33 38.05H117.67V38.79H113.92L113.56 40.1H116.79V44.26H116.02V40.84H111.01V44.3H110.23V40.1H112.7C112.813 39.7333 112.933 39.2967 113.06 38.79H109.33V38.05ZM113.85 42.61C113.837 43.07 113.79 43.4667 113.71 43.8C114.563 44.2267 115.6 44.7633 116.82 45.41L117.63 45.83L117.25 46.62C115.943 45.8733 114.663 45.1667 113.41 44.5C113.143 44.94 112.703 45.3333 112.09 45.68C111.477 46.0267 110.61 46.3667 109.49 46.7L109.13 45.9C110.263 45.5933 111.107 45.29 111.66 44.99C112.213 44.69 112.58 44.36 112.76 44C112.947 43.64 113.053 43.1633 113.08 42.57C113.087 42.4767 113.09 42.1033 113.09 41.45H113.86L113.85 42.61Z" fill="black"/>
<rect x="317" y="54" width="114" height="145.077" fill="#86EFAC" stroke="#71717A" stroke-width="2"/>
<rect x="317" y="54" width="114" height="16" fill="#BAE6FD" stroke="#71717A" stroke-width="2"/>
<path d="M360.3 39.38V40.67H359.54V38.66H363.25C363.137 38.2733 363.027 37.9367 362.92 37.65L363.7 37.51C363.767 37.6767 363.9 38.06 364.1 38.66H367.46V40.68H366.69V39.38H360.3ZM364.45 40.07C364.923 40.3167 365.52 40.64 366.24 41.04C366.96 41.4333 367.507 41.74 367.88 41.96L367.5 42.63C367.08 42.37 366.513 42.0433 365.8 41.65C365.093 41.2567 364.53 40.9567 364.11 40.75L364.45 40.07ZM362.89 40.75C362.403 41.0767 361.85 41.42 361.23 41.78C360.617 42.14 360.027 42.46 359.46 42.74L359.13 42.02C359.697 41.7667 360.283 41.4633 360.89 41.11C361.503 40.75 362.033 40.4067 362.48 40.08L362.89 40.75ZM366.69 43.4H363.91V45.5H367.68V46.23H359.33V45.5H363.1V43.4H360.32V42.67H366.69V43.4ZM371.37 39.64C371.177 39.4267 370.917 39.1567 370.59 38.83C370.27 38.4967 370.007 38.2367 369.8 38.05L370.31 37.53C370.603 37.7967 371.137 38.3067 371.91 39.06L371.37 39.64ZM372.17 38.14H377.41V45.41C377.41 45.7167 377.37 45.95 377.29 46.11C377.217 46.27 377.087 46.3833 376.9 46.45C376.713 46.5167 376.437 46.55 376.07 46.55H374.98L374.84 45.81H375.82C376.08 45.81 376.27 45.7933 376.39 45.76C376.517 45.7267 376.6 45.6667 376.64 45.58C376.687 45.4867 376.71 45.3433 376.71 45.15V38.87H372.17V38.14ZM375.75 44.54C375.543 44.3333 375.257 44.0733 374.89 43.76C374.53 43.4467 374.183 43.1567 373.85 42.89V45.98H373.13V42.7C372.877 43.1267 372.59 43.52 372.27 43.88C371.95 44.2333 371.553 44.6067 371.08 45L370.61 44.34C371.223 43.8467 371.717 43.38 372.09 42.94C372.463 42.5 372.79 41.9867 373.07 41.4H370.97V40.68H373.13V39.36H373.85V40.68H376.03V41.4H373.85V42.06L374.18 42.32C374.307 42.42 374.607 42.6567 375.08 43.03C375.553 43.3967 375.907 43.68 376.14 43.88L375.75 44.54ZM370.29 46.59H369.57V39.51H370.29V46.59ZM379.33 38.05H387.67V38.79H383.92L383.56 40.1H386.79V44.26H386.02V40.84H381.01V44.3H380.23V40.1H382.7C382.813 39.7333 382.933 39.2967 383.06 38.79H379.33V38.05ZM383.85 42.61C383.837 43.07 383.79 43.4667 383.71 43.8C384.563 44.2267 385.6 44.7633 386.82 45.41L387.63 45.83L387.25 46.62C385.943 45.8733 384.663 45.1667 383.41 44.5C383.143 44.94 382.703 45.3333 382.09 45.68C381.477 46.0267 380.61 46.3667 379.49 46.7L379.13 45.9C380.263 45.5933 381.107 45.29 381.66 44.99C382.213 44.69 382.58 44.36 382.76 44C382.947 43.64 383.053 43.1633 383.08 42.57C383.087 42.4767 383.09 42.1033 383.09 41.45H383.86L383.85 42.61Z" fill="black"/>
<rect x="182" y="54" width="114" height="145.077" fill="#FED7AA" stroke="#71717A" stroke-width="2"/>
<path d="M229.73 37.45C230.063 38.3567 230.477 39.1067 230.97 39.7C231.47 40.2933 232.133 40.8367 232.96 41.33L232.54 42.06C231.647 41.4867 230.93 40.8733 230.39 40.22C229.857 39.5667 229.403 38.7333 229.03 37.72L229.73 37.45ZM227.87 37.9C227.497 38.76 227.037 39.5267 226.49 40.2C225.943 40.8733 225.283 41.4933 224.51 42.06L224.08 41.4C224.747 40.94 225.343 40.3867 225.87 39.74C226.397 39.0867 226.83 38.3767 227.17 37.61L227.87 37.9ZM225.37 42.21V41.5H231.21C231.183 42.0067 231.14 42.6367 231.08 43.39C231.027 44.1433 230.98 44.7033 230.94 45.07C230.907 45.4167 230.83 45.6867 230.71 45.88C230.597 46.0667 230.423 46.2 230.19 46.28C229.963 46.36 229.653 46.4 229.26 46.4H227.94L227.8 45.67H229.03C229.323 45.67 229.547 45.6467 229.7 45.6C229.853 45.5467 229.963 45.4567 230.03 45.33C230.103 45.1967 230.153 45.0033 230.18 44.75C230.213 44.3633 230.25 43.9233 230.29 43.43C230.33 42.9367 230.36 42.53 230.38 42.21H227.58C227.567 42.3167 227.553 42.51 227.54 42.79C227.507 43.4033 227.407 43.9267 227.24 44.36C227.073 44.7867 226.797 45.19 226.41 45.57C226.023 45.95 225.473 46.3467 224.76 46.76L224.21 46.07C224.863 45.7433 225.367 45.4267 225.72 45.12C226.073 44.8067 226.323 44.4733 226.47 44.12C226.623 43.76 226.73 43.3133 226.79 42.78L226.84 42.21H225.37ZM235.61 38.78H234.12V38.11H238.75V38.78H237.41V39.97H238.57V46.08H235.06V46.69H234.44V39.97H235.61V38.78ZM242.14 43.57L242.86 43.71L242.79 45.09C242.763 45.4433 242.717 45.7067 242.65 45.88C242.583 46.0467 242.473 46.1633 242.32 46.23C242.173 46.3033 241.947 46.34 241.64 46.34H240.46C240.167 46.34 239.94 46.3033 239.78 46.23C239.62 46.1633 239.507 46.0433 239.44 45.87C239.373 45.6967 239.34 45.4467 239.34 45.12V41.23H241.71V38.89H239.22V38.16H242.45V41.99H240.08V44.96C240.08 45.1467 240.093 45.2833 240.12 45.37C240.153 45.4567 240.21 45.5167 240.29 45.55C240.37 45.5833 240.497 45.6 240.67 45.6H241.41C241.603 45.6 241.747 45.58 241.84 45.54C241.933 45.5 241.997 45.43 242.03 45.33C242.07 45.23 242.097 45.07 242.11 44.85L242.14 43.57ZM236.19 39.97H236.81V38.78H236.19V39.97ZM235.69 40.63H235.05V42.94C235.303 42.6667 235.473 42.38 235.56 42.08C235.647 41.78 235.69 41.35 235.69 40.79V40.63ZM237.57 42.93C237.303 42.93 237.11 42.8733 236.99 42.76C236.87 42.6467 236.81 42.4533 236.81 42.18V40.63H236.19V40.89C236.183 41.49 236.127 41.9667 236.02 42.32C235.913 42.6733 235.713 43.0267 235.42 43.38L235.06 43.11V43.77H237.94V42.93H237.57ZM237.95 42.39V40.63H237.31V41.96C237.31 42.12 237.343 42.2333 237.41 42.3C237.477 42.36 237.593 42.39 237.76 42.39H237.95ZM235.06 44.43V45.43H237.94V44.43H235.06ZM244.33 38.05H252.67V38.79H248.92L248.56 40.1H251.79V44.26H251.02V40.84H246.01V44.3H245.23V40.1H247.7C247.813 39.7333 247.933 39.2967 248.06 38.79H244.33V38.05ZM248.85 42.61C248.837 43.07 248.79 43.4667 248.71 43.8C249.563 44.2267 250.6 44.7633 251.82 45.41L252.63 45.83L252.25 46.62C250.943 45.8733 249.663 45.1667 248.41 44.5C248.143 44.94 247.703 45.3333 247.09 45.68C246.477 46.0267 245.61 46.3667 244.49 46.7L244.13 45.9C245.263 45.5933 246.107 45.29 246.66 44.99C247.213 44.69 247.58 44.36 247.76 44C247.947 43.64 248.053 43.1633 248.08 42.57C248.087 42.4767 248.09 42.1033 248.09 41.45H248.86L248.85 42.61Z" fill="black"/>
<path d="M311.802 62.9803C312.344 63.0894 312.871 62.7389 312.98 62.1975L314.758 53.3748C314.867 52.8334 314.517 52.3061 313.975 52.197C313.434 52.0879 312.906 52.4384 312.797 52.9798L311.217 60.8222L303.375 59.2421C302.833 59.133 302.306 59.4834 302.197 60.0248C302.088 60.5662 302.438 61.0936 302.98 61.2026L311.802 62.9803ZM104 62C104.783 62.6215 104.783 62.6219 104.783 62.6222C104.783 62.6222 104.783 62.6224 104.783 62.6222C104.783 62.622 104.784 62.6212 104.785 62.62C104.787 62.6175 104.79 62.6131 104.795 62.6067C104.806 62.5938 104.823 62.5732 104.846 62.5451C104.893 62.4887 104.966 62.4022 105.066 62.2875C105.267 62.058 105.576 61.7158 106 61.2769C106.848 60.3991 108.157 59.1344 109.98 57.6112C113.627 54.5651 119.332 50.4836 127.528 46.3948C143.916 38.2195 170.292 30 210.122 30V29V28C170.008 28 143.322 36.2805 126.635 44.6052C118.294 48.7664 112.458 52.9349 108.698 56.0763C106.818 57.6469 105.457 58.9603 104.562 59.8872C104.114 60.3506 103.782 60.7174 103.561 60.9713C103.45 61.0983 103.366 61.1971 103.309 61.2656C103.28 61.2999 103.259 61.3266 103.243 61.3455C103.235 61.355 103.229 61.3625 103.225 61.368C103.223 61.3707 103.221 61.373 103.22 61.3748C103.219 61.3756 103.218 61.3766 103.218 61.377C103.217 61.3778 103.217 61.3785 104 62ZM210.122 29V30C249.954 30 275.258 38.2198 290.57 46.3824C298.229 50.4649 303.397 54.538 306.641 57.5738C308.263 59.092 309.404 60.3516 310.135 61.2242C310.5 61.6605 310.763 62.0001 310.932 62.227C311.017 62.3405 311.078 62.4257 311.117 62.4808C311.136 62.5084 311.15 62.5284 311.158 62.5406C311.163 62.5467 311.165 62.5508 311.167 62.553C311.168 62.5541 311.168 62.5546 311.168 62.5547C311.168 62.5548 311.168 62.5545 311.168 62.5545C311.168 62.5541 311.167 62.5535 312 62C312.833 61.4465 312.832 61.4457 312.832 61.4447C312.831 61.4443 312.831 61.4432 312.83 61.4422C312.829 61.4403 312.827 61.4379 312.825 61.435C312.821 61.4292 312.816 61.4214 312.809 61.4116C312.796 61.3921 312.777 61.3648 312.752 61.3299C312.703 61.2601 312.632 61.16 312.536 61.0318C312.345 60.7753 312.058 60.4059 311.668 59.9399C310.887 59.0078 309.691 57.6892 308.007 56.1137C304.64 52.962 299.329 48.7851 291.511 44.6176C275.871 36.2802 250.236 28 210.122 28V29Z" fill="black"/>
</svg>
